<?xml version="1.0" encoding="UTF-8"?>
<!DOCTYPE svg PUBLIC "-//W3C//DTD SVG 1.1//EN" "http://www.w3.org/Graphics/SVG/1.1/DTD/svg11.dtd">
<svg xmlns="http://www.w3.org/2000/svg" version="1.1" width="800px" height="800px" style="shape-rendering:geometricPrecision; text-rendering:geometricPrecision; image-rendering:optimizeQuality; fill-rule:evenodd; clip-rule:evenodd" xmlns:xlink="http://www.w3.org/1999/xlink">
<g><path style="opacity:0.992" fill="#fefffe" d="M 372.5,-0.5 C 390.5,-0.5 408.5,-0.5 426.5,-0.5C 569.714,14.628 677.214,84.2946 749,208.5C 777.925,262.761 794.758,320.428 799.5,381.5C 799.5,400.833 799.5,420.167 799.5,439.5C 788.195,563.631 733.862,664.131 636.5,741C 602.85,765.994 566.183,785.494 526.5,799.5C 521.5,799.5 516.5,799.5 511.5,799.5C 504.677,796.834 500.51,791.834 499,784.5C 498.667,740.5 498.333,696.5 498,652.5C 496.617,636.631 492.283,621.631 485,607.5C 481.098,601.541 476.598,596.041 471.5,591C 504.081,587.02 535.414,578.354 565.5,565C 606.09,543.542 632.423,510.542 644.5,466C 655.881,424.75 657.048,383.25 648,341.5C 640.385,317.928 628.885,296.595 613.5,277.5C 621.498,251.864 622.998,225.864 618,199.5C 615.464,189.394 612.63,179.394 609.5,169.5C 591.77,168.682 574.77,171.849 558.5,179C 537.566,188.128 517.899,199.295 499.5,212.5C 432.97,193.841 366.47,193.841 300,212.5C 281.349,199.42 261.516,188.253 240.5,179C 224.23,171.849 207.23,168.682 189.5,169.5C 178.933,197.365 175.767,226.032 180,255.5C 181.206,262.992 183.04,270.326 185.5,277.5C 151.986,318.526 138.82,365.526 146,418.5C 153.098,510.933 201.931,566.433 292.5,585C 304.12,587.279 315.786,589.279 327.5,591C 319.265,598.272 313.099,607.105 309,617.5C 305.693,627.07 302.859,636.736 300.5,646.5C 274.917,658.303 248.917,659.47 222.5,650C 211.544,644.055 202.044,636.222 194,626.5C 185.41,611.57 174.91,598.07 162.5,586C 147.331,573.164 129.997,568.497 110.5,572C 107.82,572.68 106.153,574.347 105.5,577C 106.652,580.306 108.319,583.306 110.5,586C 130.815,598.647 146.648,615.481 158,636.5C 171.349,679.506 200.516,703.006 245.5,707C 264.013,707.696 282.346,706.196 300.5,702.5C 300.667,730.169 300.5,757.835 300,785.5C 297.95,792.653 293.45,797.32 286.5,799.5C 281.833,799.5 277.167,799.5 272.5,799.5C 156.878,756.381 75.3783,677.715 28,563.5C 12.6785,523.375 3.17855,482.041 -0.5,439.5C -0.5,420.167 -0.5,400.833 -0.5,381.5C 11.0615,251.839 68.7282,148.339 172.5,71C 232.768,29.4097 299.434,5.57637 372.5,-0.5 Z"/></g>
</svg>
