<?xml version="1.0" encoding="UTF-8"?>
<!DOCTYPE svg PUBLIC "-//W3C//DTD SVG 1.1//EN" "http://www.w3.org/Graphics/SVG/1.1/DTD/svg11.dtd">
<svg xmlns="http://www.w3.org/2000/svg" version="1.1" width="800px" height="800px" style="shape-rendering:geometricPrecision; text-rendering:geometricPrecision; image-rendering:optimizeQuality; fill-rule:evenodd; clip-rule:evenodd" xmlns:xlink="http://www.w3.org/1999/xlink">
<g><path style="opacity:0.991" fill="#fefffe" d="M -0.5,119.5 C -0.5,110.5 -0.5,101.5 -0.5,92.5C 7.43177,47.7251 33.0984,18.2251 76.5,4C 128.614,-7.41897 169.114,9.08103 198,53.5C 218.555,95.0083 215.555,134.675 189,172.5C 157.948,208.226 119.448,220.059 73.5,208C 31.818,192.503 7.15134,163.003 -0.5,119.5 Z"/></g>
<g><path style="opacity:0.998" fill="#fefffe" d="M 799.5,464.5 C 799.5,573.167 799.5,681.833 799.5,790.5C 797.359,793.472 794.692,795.972 791.5,798C 734.833,798.667 678.167,798.667 621.5,798C 618.804,797.31 616.637,795.81 615,793.5C 613.675,707.223 613.008,620.89 613,534.5C 613.196,513.392 611.862,492.392 609,471.5C 601.472,426.627 574.972,406.794 529.5,412C 492.339,416.492 470.839,437.326 465,474.5C 461.57,492.999 459.903,511.665 460,530.5C 459.995,617.915 459.328,705.248 458,792.5C 456.127,794.709 453.96,796.542 451.5,798C 394.833,798.667 338.167,798.667 281.5,798C 278.333,796.167 275.833,793.667 274,790.5C 273.333,615.167 273.333,439.833 274,264.5C 275.892,260.942 278.725,258.442 282.5,257C 336.167,256.333 389.833,256.333 443.5,257C 448.667,258.167 451.833,261.333 453,266.5C 453.333,278.167 453.667,289.833 454,301.5C 492.828,262.876 539.828,243.543 595,243.5C 636.609,242.487 675.776,251.653 712.5,271C 744.654,291.827 767.154,320.327 780,356.5C 791.481,391.732 797.981,427.732 799.5,464.5 Z"/></g>
<g><path style="opacity:0.99" fill="#fefffe" d="M 187.5,799.5 C 132.833,799.5 78.1667,799.5 23.5,799.5C 17.6223,798.125 13.7889,794.459 12,788.5C 11.3333,614.833 11.3333,441.167 12,267.5C 12.831,262.319 15.6643,258.819 20.5,257C 76.8333,256.333 133.167,256.333 189.5,257C 194.847,259.015 198.014,262.849 199,268.5C 199.667,441.5 199.667,614.5 199,787.5C 197.652,794.013 193.819,798.013 187.5,799.5 Z"/></g>
</svg>
